<?xml version="1.0" encoding="UTF-8"?><svg id="Layer_1" xmlns="http://www.w3.org/2000/svg" viewBox="0 0 147.22 147.22"><defs><style>.cls-1{fill:#231f20;}.cls-1,.cls-2,.cls-3,.cls-4{stroke-width:0px;}.cls-2{fill:#ddaa72;}.cls-3{fill:#b05498;}.cls-5{stroke-width:2px;}.cls-5,.cls-6,.cls-7{fill:none;stroke:#231f20;stroke-miterlimit:10;}.cls-4{fill:#7d6eb2;}.cls-6{stroke-width:1.84px;}.cls-7{stroke-width:.46px;}</style></defs><path class="cls-1" d="M73.61,19c30.16,0,54.61,24.45,54.61,54.61s-24.45,54.61-54.61,54.61-54.61-24.45-54.61-54.61,24.45-54.61,54.61-54.61M73.61,0C33.02,0,0,33.02,0,73.61s33.02,73.61,73.61,73.61,73.61-33.02,73.61-73.61S114.2,0,73.61,0h0Z"/><path class="cls-1" d="M56.43,93.96c.48,5.85.16,10.63-.79,14.24-.95,3.62-2.16,5.91-3.68,6.97-1.51,1.05-3.06.86-4.99-.29-1.95-1.16-3.96-2.98-6.2-5.26-1.36-1.38-2.7-2.8-4-4.29l.48-.42c.91,1.03,1.85,2.02,2.8,2.97,1.91,1.9,3.66,3.42,5.31,4.24,1.86.91,3.54.96,5.05.04s2.7-2.88,3.62-5.93c.92-3.06,1.2-7.22.73-12.43-.13-.98-.19-1.48-.31-2.47-.94-5.92-2.11-10.74-3.72-14.18s-2.9-5.88-4-7.29c-.77-.97-1.14-1.67-1.12-2.12,0-.23.18-.42.52-.59,1.7-.75,3.24-2.68,4.67-5.79,1.44-3.11,2.32-6.63,2.77-10.41.59-5.15.09-9.28-1.22-12.15-1.31-2.89-3.11-3.54-5.84-2.34-1.62.71-3.49,2.16-5.68,4.22-1.68,1.58-3.52,3.53-5.4,5.85l-.7-.55c2.02-2.49,3.99-4.61,5.77-6.39,2.86-2.85,5.15-4.85,7.08-5.83,1.75-.89,3.15-.95,4.37-.05s2.11,2.72,2.71,5.5c.61,2.78.71,6.37.22,10.73-.16,1.38-.39,2.87-.7,4.44-.65,3.08-1.38,5.6-2.25,7.48-.88,1.87-1.68,3.27-2.43,4.19-.75.91-1.25,1.48-1.53,1.71-.06.06-.09.07-.16.13.04.04.06.06.09.11.23.15.74.76,1.55,1.86.8,1.11,1.69,2.83,2.68,5.18,1,2.34,1.95,5.5,2.81,9.33.76,3.35,1.24,6.58,1.48,9.58Z"/><path class="cls-4" d="M54.77,93.81c.47,5.21.19,9.37-.73,12.43-.92,3.05-2.11,5.01-3.62,5.93s-3.19.88-5.05-.04c-1.65-.82-3.4-2.34-5.31-4.24-.95-.95-1.89-1.94-2.8-2.97s-1.81-2.1-2.66-3.22c-1.71-2.23-3.08-4.39-3.99-6.58-.6-1.42-.95-2.81-1.04-4.21-.07-2.14.48-3.66,1.47-4.43s2.14-1.12,3.39-.96c1.47.19,2.85.75,4.11,1.71s1.97,1.7,2,2.07c0,.19,0,.34,0,.41s-.02.13-.04.19c0,.14,0,.24,0,.3s.03.21.06.41c.08.41.24.64.42.66.3.05.6-.29.9-1.02s.36-1.85.19-3.34c-.09-.85-.3-1.73-.6-2.65s-.61-1.69-.93-2.31c-.31-.63-.56-.95-.76-.96-.22-.02-.31.23-.28.73.03.42.13.97.3,1.61s.32,1.22.47,1.71c.09.3.17.51.21.65-1.34-.48-2.4-1.5-3.17-3.05-.77-1.54-1.24-3.45-1.32-5.77-.04-1.06.02-2.12.18-3.19.22-1.5.58-2.84,1.08-4.03.49-1.19.97-2.15,1.41-2.89s.7-1.11.77-1.12c.03.07.04.27.03.59,0,.31-.02.65-.05,1.01-.02.26-.02.39-.04.65,0,.79.08,1.18.28,1.17.19,0,.41-.38.65-1.11.24-.74.4-1.54.46-2.4.11-1.51-.06-2.78-.5-3.77-.45-.99-.82-1.45-1.16-1.4-.25.03-.42.29-.52.77-.03.21,0,.46.09.76.08.3.18.58.27.85.08.13.14.26.17.4.04.14.05.24.04.3,0,.07-.07.15-.2.23-.04,0-.06,0-.1,0-.36.24-.85.59-1.4,1.06-.87.73-1.86,1.5-2.95,2.23-1.1.72-2.1,1.1-3.02,1.16-1.7.11-2.94-.7-3.65-2.3s-.77-3.66-.08-6.21c.84-3.07,2.82-6.68,5.93-10.86.59-.79,1.18-1.55,1.76-2.27,1.88-2.31,3.72-4.27,5.4-5.85,2.19-2.07,4.06-3.51,5.68-4.22,2.73-1.2,4.53-.54,5.84,2.34,1.31,2.88,1.81,7,1.22,12.15-.44,3.78-1.33,7.3-2.77,10.41-1.43,3.11-2.97,5.04-4.67,5.79-.33.17-.51.36-.52.59-.02.45.36,1.15,1.12,2.12,1.11,1.41,2.4,3.85,4,7.29s2.78,8.26,3.72,14.18c.12,1,.18,1.49.31,2.47Z"/><path class="cls-1" d="M42.06,86.92c.17,1.48.11,2.6-.19,3.34s-.6,1.07-.9,1.02c-.18-.03-.34-.26-.42-.66-.04-.19-.06-.34-.06-.41s0-.17,0-.3c.02-.06.03-.13.04-.19s.02-.21,0-.41c-.03-.38-.74-1.11-2-2.07s-2.65-1.52-4.11-1.71c-1.25-.16-2.41.18-3.39.96s-1.54,2.3-1.47,4.43c.09,1.4.44,2.79,1.04,4.21.91,2.19,2.29,4.35,3.99,6.58.86,1.12,1.75,2.19,2.66,3.22l-.48.42c-.88-.98-1.72-1.97-2.54-3.01-2.07-2.61-3.76-5.12-4.89-7.68-1.66-3.74-1.83-6.78-.77-9.17,1.08-2.4,2.84-3.7,4.95-3.5.36.03.68.09.97.18.28.09.6.25.95.49,0-.07-.03-.18-.07-.31-.13-.41-.31-1.12-.53-2.13s-.36-2.19-.4-3.59c-.05-1.18,0-2.25.14-3.2.13-.94.33-2.06.64-3.32,0-.06-.02-.1-.05-.1-.77.52-1.42.89-1.97,1.11s-1.18.34-1.87.36c-2.09.06-3.74-1.13-4.76-3.32-1-2.19-1.15-4.85-.23-8.09.77-2.72,2.36-5.77,4.73-9.22,1.21-1.75,2.44-3.37,3.65-4.87l.7.55c-.58.72-1.17,1.48-1.76,2.27-3.11,4.19-5.09,7.79-5.93,10.86-.69,2.55-.63,4.62.08,6.21s1.95,2.41,3.65,2.3c.92-.06,1.93-.44,3.02-1.16,1.09-.73,2.08-1.5,2.95-2.23.55-.47,1.04-.82,1.4-1.06.04,0,.06,0,.1,0,.13-.08.19-.16.2-.23,0-.06,0-.17-.04-.3-.03-.14-.08-.27-.17-.4-.09-.27-.18-.55-.27-.85-.09-.3-.12-.54-.09-.76.09-.48.27-.74.52-.77.34-.05.71.41,1.16,1.4.44,1,.61,2.26.5,3.77-.06.86-.22,1.66-.46,2.4-.25.73-.46,1.11-.65,1.11-.19,0-.29-.38-.28-1.17.02-.26.02-.39.04-.65.03-.36.04-.7.05-1.01,0-.32,0-.52-.03-.59-.06,0-.32.38-.77,1.12s-.92,1.7-1.41,2.89c-.5,1.19-.86,2.53-1.08,4.03-.17,1.07-.22,2.13-.18,3.19.07,2.32.54,4.23,1.32,5.77.77,1.55,1.83,2.57,3.17,3.05-.05-.15-.12-.36-.21-.65-.15-.5-.3-1.07-.47-1.71s-.27-1.19-.3-1.61c-.04-.5.06-.75.28-.73.19,0,.44.33.76.96.32.63.63,1.4.93,2.31s.51,1.8.6,2.65Z"/><path class="cls-6" d="M34.72,45.98c2.02-2.49,3.99-4.61,5.77-6.39,2.86-2.85,5.15-4.85,7.08-5.83,1.75-.89,3.15-.95,4.37-.05s2.11,2.72,2.71,5.5c.61,2.78.71,6.37.22,10.73-.16,1.38-.39,2.87-.7,4.44-.65,3.08-1.38,5.6-2.25,7.48-.88,1.87-1.68,3.27-2.43,4.19-.75.91-1.25,1.48-1.53,1.71-.06.06-.09.07-.16.13.04.04.06.06.09.11.23.15.74.76,1.55,1.86.8,1.11,1.69,2.83,2.68,5.18,1,2.34,1.95,5.5,2.81,9.33.76,3.35,1.24,6.58,1.48,9.58.48,5.85.16,10.63-.79,14.24-.95,3.62-2.16,5.91-3.68,6.97-1.51,1.05-3.06.86-4.99-.29-1.95-1.16-3.96-2.98-6.2-5.26-1.36-1.38-2.7-2.8-4-4.29-.88-.98-1.72-1.97-2.54-3.01-2.07-2.61-3.76-5.12-4.89-7.68-1.66-3.74-1.83-6.78-.77-9.17,1.08-2.4,2.84-3.7,4.95-3.5.36.03.68.09.97.18.28.09.6.25.95.49,0-.07-.03-.18-.07-.31-.13-.41-.31-1.12-.53-2.13s-.36-2.19-.4-3.59c-.05-1.18,0-2.25.14-3.2.13-.94.33-2.06.64-3.32,0-.06-.02-.1-.05-.1-.77.52-1.42.89-1.97,1.11s-1.18.34-1.87.36c-2.09.06-3.74-1.13-4.76-3.32-1-2.19-1.15-4.85-.23-8.09.77-2.72,2.36-5.77,4.73-9.22,1.21-1.75,2.44-3.37,3.65-4.87Z"/><path class="cls-7" d="M37.25,104.92c.91,1.03,1.85,2.02,2.8,2.97,1.91,1.9,3.66,3.42,5.31,4.24,1.86.91,3.54.96,5.05.04s2.7-2.88,3.62-5.93c.92-3.06,1.2-7.22.73-12.43-.13-.98-.19-1.48-.31-2.47-.94-5.92-2.11-10.74-3.72-14.18s-2.9-5.88-4-7.29c-.77-.97-1.14-1.67-1.12-2.12,0-.23.18-.42.52-.59,1.7-.75,3.24-2.68,4.67-5.79,1.44-3.11,2.32-6.63,2.77-10.41.59-5.15.09-9.28-1.22-12.15-1.31-2.89-3.11-3.54-5.84-2.34-1.62.71-3.49,2.16-5.68,4.22-1.68,1.58-3.52,3.53-5.4,5.85-.58.72-1.17,1.48-1.76,2.27-3.11,4.19-5.09,7.79-5.93,10.86-.69,2.55-.63,4.62.08,6.21s1.95,2.41,3.65,2.3c.92-.06,1.93-.44,3.02-1.16,1.09-.73,2.08-1.5,2.95-2.23.55-.47,1.04-.82,1.4-1.06.04,0,.06,0,.1,0,.13-.08.19-.16.2-.23,0-.06,0-.17-.04-.3-.03-.14-.08-.27-.17-.4-.09-.27-.18-.55-.27-.85-.09-.3-.12-.54-.09-.76.09-.48.27-.74.52-.77.34-.05.71.41,1.16,1.4.44,1,.61,2.26.5,3.77-.06.86-.22,1.66-.46,2.4-.25.73-.46,1.11-.65,1.11-.19,0-.29-.38-.28-1.17.02-.26.02-.39.04-.65.03-.36.04-.7.05-1.01,0-.32,0-.52-.03-.59-.06,0-.32.38-.77,1.12s-.92,1.7-1.41,2.89c-.5,1.19-.86,2.53-1.08,4.03-.17,1.07-.22,2.13-.18,3.19.07,2.32.54,4.23,1.32,5.77.77,1.55,1.83,2.57,3.17,3.05-.05-.15-.12-.36-.21-.65-.15-.5-.3-1.07-.47-1.71s-.27-1.19-.3-1.61c-.04-.5.06-.75.28-.73.19,0,.44.33.76.96.32.63.63,1.4.93,2.31s.51,1.8.6,2.65c.17,1.48.11,2.6-.19,3.34s-.6,1.07-.9,1.02c-.18-.03-.34-.26-.42-.66-.04-.19-.06-.34-.06-.41s0-.17,0-.3c.02-.06.03-.13.04-.19s.02-.21,0-.41c-.03-.38-.74-1.11-2-2.07s-2.65-1.52-4.11-1.71c-1.25-.16-2.41.18-3.39.96s-1.54,2.3-1.47,4.43c.09,1.4.44,2.79,1.04,4.21.91,2.19,2.29,4.35,3.99,6.58.86,1.12,1.75,2.19,2.66,3.22Z"/><path class="cls-1" d="M122.23,79.14c.53,3.76.13,7.12-.87,10.19-1.41,4.36-3.88,8.1-6.77,11.67-2.9,3.59-5.85,6.74-8.69,9.49-2.83,2.76-5.26,4.83-7.5,5.97-2.96,1.52-5.17,1.3-7.14-1.01s-3.28-6.3-3.69-11.89c-.09-1.91-.09-3.78.05-5.57.29-3.81.96-7.35,2.08-10.52,1.12-3.16,2.35-5.7,3.72-7.56,1.36-1.84,2.55-2.78,3.59-2.79.1,0,.16-.04.16-.12,0-.07-.08-.27-.25-.58-1.64-3.21-2.94-6.8-3.87-10.57-.66-2.72-1.16-5.44-1.49-8.14,0-.32-.03-.65-.06-.98-.08-1.15-.19-2.27-.33-3.36-.3-4.95-.09-9.42.44-13.3.57-4.2,1.48-7.15,2.68-8.87,1.21-1.73,2.74-1.79,4.98-.45,1,.59,2.15,1.51,3.51,2.71,2.78,2.51,5.55,5.36,8.2,8.53,2.66,3.18,4.85,6.2,6.27,9.3,1.29,2.85,1.81,5.48,1.52,8.01-.3,2.53-1.44,4.45-3.24,5.63,0,.06.14.24.41.53.62.52,1.67,1.89,3.01,4.03s2.68,5.53,3.26,9.65ZM120.97,84.23c.14-5.45-1.17-9.96-2.88-12.92-1.71-2.97-3.1-4.86-3.88-5.52-.17-.15-.27-.26-.3-.33-.07,0-.11,0-.18,0-.27-.03-.77-.16-1.51-.39-.74-.24-1.56-.77-2.47-1.61-.9-.85-1.76-2.15-2.61-3.89-.53-1.16-.84-2.09-.95-2.78-.03-.2-.04-.38-.03-.51s.04-.19.1-.18c.09,0,.34.35.75,1.01,1.03,1.76,2.03,3.05,3.01,3.88,1,.82,1.93,1.28,2.8,1.38,1.9.23,3.43-.92,4.29-3.15.87-2.22.62-4.96-.83-8.3-1.64-3.78-4.22-7.05-7.17-10.3-2.95-3.24-5.49-5.62-7.84-6.89-1.82-.98-3.29-1.1-4.7-.14s-2.46,3.12-3.26,6.59c-.81,3.49-.99,8.33-.47,14.56.35,4.12.96,7.8,1.94,10.87.98,3.08,2.07,5.69,3.31,7.78,1.24,2.09,2.43,3.72,3.6,4.9,1.17,1.19,2.12,2.04,2.88,2.59.65.49,1,.83,1.05,1.04,0,.18.02.27.02.44-.03.43-.17.82-.42,1.17-.25.34-.55.53-.91.55-.42.03-.86-.08-1.31-.35-.46-.26-.84-.53-1.15-.81-.94-.85-1.65-1.56-2.09-2.11-.45-.55-.76-.99-.91-1.29-.1-.15-.18-.27-.25-.34s-.13-.11-.2-.11c-.14,0-.34.17-.63.48-.18.09-.38.25-.63.49-2.39,2.02-4.22,4.58-5.49,7.62-1.26,3.04-2.01,6.2-2.28,9.4-.3,3.66,0,7.03.71,10.04s1.85,5.18,3.36,6.49,3.37,1.36,5.83.29c1.48-.65,3.09-1.75,4.89-3.22,1.81-1.48,3.7-3.27,5.67-5.35,1.97-2.07,3.96-4.39,5.82-7.01,1.86-2.61,3.45-5.47,4.45-8.8.5-1.66.82-3.4.9-5.28Z"/><path class="cls-2" d="M118.09,71.31c1.71,2.96,3.01,7.47,2.88,12.92-.08,1.88-.41,3.62-.9,5.28-1,3.33-2.59,6.19-4.45,8.8-1.86,2.62-3.84,4.94-5.82,7.01-1.97,2.07-3.86,3.87-5.67,5.35-1.8,1.47-3.41,2.56-4.89,3.22-2.45,1.08-4.32,1.02-5.83-.29s-2.64-3.49-3.36-6.49-1-6.38-.71-10.04c.27-3.2,1.01-6.36,2.28-9.4,1.26-3.03,3.1-5.6,5.49-7.62.25-.24.45-.4.63-.49.29-.31.49-.47.63-.48.07,0,.14.04.2.11s.15.19.25.34c.16.3.46.74.91,1.29.44.55,1.15,1.26,2.09,2.11.31.28.69.55,1.15.81.45.27.89.38,1.31.35.36-.03.66-.21.91-.55.26-.35.4-.74.42-1.17,0-.18,0-.27-.02-.44-.05-.21-.4-.55-1.05-1.04-.76-.55-1.71-1.4-2.88-2.59-1.16-1.18-2.35-2.81-3.6-4.9-1.24-2.09-2.33-4.7-3.31-7.78-.98-3.07-1.59-6.75-1.94-10.87-.52-6.23-.34-11.07.47-14.56.8-3.48,1.85-5.63,3.26-6.59s2.89-.84,4.7.14c2.35,1.26,4.89,3.65,7.84,6.89,2.95,3.25,5.53,6.52,7.17,10.3,1.45,3.34,1.7,6.08.83,8.3-.86,2.23-2.39,3.38-4.29,3.15-.88-.1-1.81-.56-2.8-1.38-.99-.83-1.98-2.12-3.01-3.88-.41-.66-.65-1-.75-1.01-.06,0-.09.06-.1.18s0,.3.03.51c.11.69.42,1.62.95,2.78.85,1.74,1.71,3.04,2.61,3.89.91.84,1.73,1.37,2.47,1.61.74.23,1.24.36,1.51.39.07,0,.11,0,.18,0,.04.07.14.18.3.33.78.66,2.18,2.55,3.88,5.52Z"/><path class="cls-1" d="M91.56,57.7c.3,5.23-.1,10.48-1.19,15.79-1.16,5.63-2.91,10.25-5.05,13.88s-4.46,5.46-7.03,5.51c-.42-.04-.64-.06-1.07-.09,0,.16.03.39.1.7.09.63.2,1.63.33,3.01.12,1.38.16,3.13.09,5.23-.21,6.81-1.43,12.16-3.23,16.29-1.81,4.13-3.73,6.11-5.61,5.84-2.67-.41-5.38-4.2-8.04-10.91-3.11-7.87-4.87-17.69-5.22-26.01-.37-8.57.38-18.35,2.19-26.81,1.88-8.79,4.6-16.36,7.67-22.53,2.09-4.08,4-6.91,5.85-8.63,1.83-1.71,3.49-2.49,5.11-2.39,3.12.2,5.95,3.02,9.01,8.6,2.66,4.86,4.77,10.81,5.69,18.18.03.41.06.82.08,1.24.08,1.02.18,2.07.3,3.1ZM89.42,69.78c.66-4.26.86-8.45.6-12.59-.5-7.89-2.38-14.29-4.99-19.56-2.6-5.26-5.25-7.94-8.31-8.11-2.89-.17-5.59,2.13-8.48,7.18-2.9,5.04-5.66,12.01-7.95,20.86-2.34,9.07-3.38,19.76-2.92,29.1.51,10.2,2.26,18.32,4.62,24.62,2.37,6.29,4.52,9.29,6.8,9.44,1.8.12,3.31-1.56,4.78-5.26,1.48-3.69,2.39-8.15,2.5-13.46.05-2.47-.11-4.99-.51-7.55-.1-.78-.19-1.36-.28-1.76-.08-.39-.18-.66-.27-.82-.08-.16-.22-.31-.4-.47-.07-.08-.18-.19-.33-.36-.72-.78-1.26-1.66-1.63-2.62s-.55-1.72-.55-2.3c0-.48.11-.72.33-.72.11,0,.33.24.66.72.52.65,1.24,1.41,2.14,2.29s1.96,1.29,3.19,1.27c1.08-.02,2.24-.62,3.5-1.81,1.26-1.18,2.66-3.28,4.04-6.27,1.63-3.53,2.79-7.57,3.46-11.84Z"/><path class="cls-1" d="M91.51,56.72c.03.32.05.65.06.98-.12-1.03-.22-2.07-.3-3.1-.03-.41-.06-.83-.08-1.24.14,1.09.25,2.2.33,3.36Z"/><path class="cls-3" d="M90.02,57.19c.26,4.13.06,8.33-.6,12.59-.66,4.27-1.83,8.31-3.46,11.84-1.37,2.99-2.78,5.09-4.04,6.27-1.26,1.19-2.42,1.79-3.5,1.81-1.23.02-2.29-.4-3.19-1.27s-1.62-1.63-2.14-2.29c-.33-.48-.55-.72-.66-.72-.22,0-.33.24-.33.72,0,.57.18,1.34.55,2.3s.91,1.83,1.63,2.62c.15.17.26.28.33.36.18.16.31.31.4.47.09.16.18.43.27.82.08.4.18.98.28,1.76.4,2.56.55,5.08.51,7.55-.11,5.31-1.02,9.77-2.5,13.46-1.47,3.7-2.98,5.38-4.78,5.26-2.28-.15-4.43-3.15-6.8-9.44-2.36-6.3-4.11-14.42-4.62-24.62-.46-9.34.58-20.03,2.92-29.1,2.29-8.85,5.04-15.82,7.95-20.86,2.9-5.05,5.6-7.35,8.48-7.18,3.06.18,5.71,2.85,8.31,8.11,2.61,5.26,4.49,11.66,4.99,19.56ZM79.41,59.41c.41-1.31.6-2.19.58-2.66,0-.31-.08-.48-.22-.48-.21,0-.53.3-.97.92-.43.63-.88,1.33-1.32,2.12s-.82,1.51-1.14,2.15c-.26.41-.41.65-.43.73-1.34-2.28-2.42-3.51-3.26-3.75-.3.08-.44.29-.44.6,0,.24.04.44.11.6,1.01,1.78,1.53,2.68,2.55,4.49-.06.1-.1.15-.17.25-.26.48-.77,1.05-1.44,1.71-.56.54-.84,1.12-.84,1.6s.26.75.78.75c.63,0,1.48-.63,2.55-1.85.04-.07.07-.12.11-.12.07-.08.15-.12.22-.12s.17.08.28.25c.12.17.32.45.62.87.37.74,1.06,1.85,2.06,3.35.15.25.3.37.44.37.11,0,.19-.07.25-.24s.08-.38.08-.63c0-.57-.71-2.19-2.13-4.81-.18-.33-.37-.69-.55-1.11,1.12-2.02,1.87-3.67,2.28-4.98Z"/><path class="cls-1" d="M79.99,56.75c.02.47-.18,1.35-.58,2.66s-1.16,2.96-2.28,4.98c.18.41.37.77.55,1.11,1.42,2.62,2.13,4.24,2.13,4.81,0,.25-.03.46-.08.63s-.14.24-.25.24c-.15,0-.3-.12-.44-.37-1-1.49-1.69-2.61-2.06-3.35-.3-.41-.5-.7-.62-.87-.11-.17-.2-.25-.28-.25s-.15.04-.22.12c-.04,0-.07.05-.11.12-1.07,1.23-1.93,1.85-2.55,1.85-.53,0-.78-.25-.78-.75s.28-1.06.84-1.6c.66-.65,1.18-1.23,1.44-1.71.06-.1.1-.15.17-.25-1.02-1.81-1.54-2.71-2.55-4.49-.07-.16-.11-.36-.11-.6,0-.31.15-.52.44-.6.84.24,1.93,1.48,3.26,3.75.03-.08.18-.32.43-.73.32-.64.7-1.36,1.14-2.15s.89-1.49,1.32-2.12c.43-.62.76-.93.97-.92.14,0,.22.17.22.48Z"/><path class="cls-6" d="M91.56,57.7c.3,5.23-.1,10.48-1.19,15.79-1.16,5.63-2.91,10.25-5.05,13.88s-4.46,5.46-7.03,5.51c-.42-.04-.64-.06-1.07-.09,0,.16.03.39.1.7.09.63.2,1.63.33,3.01.12,1.38.16,3.13.09,5.23-.21,6.81-1.43,12.16-3.23,16.29-1.81,4.13-3.73,6.11-5.61,5.84-2.67-.41-5.38-4.2-8.04-10.91-3.11-7.87-4.87-17.69-5.22-26.01-.37-8.57.38-18.35,2.19-26.81,1.88-8.79,4.6-16.36,7.67-22.53,2.09-4.08,4-6.91,5.85-8.63,1.83-1.71,3.49-2.49,5.11-2.39,3.12.2,5.95,3.02,9.01,8.6,2.66,4.86,4.77,10.81,5.69,18.18"/><path class="cls-5" d="M91.18,53.37c-.3-4.95-.09-9.42.44-13.3.57-4.2,1.48-7.15,2.68-8.87,1.21-1.73,2.74-1.79,4.98-.45,1,.59,2.15,1.51,3.51,2.71,2.78,2.51,5.55,5.36,8.2,8.53,2.66,3.18,4.85,6.2,6.27,9.3,1.29,2.85,1.81,5.48,1.52,8.01-.3,2.53-1.44,4.45-3.24,5.63,0,.06.14.24.41.53.62.52,1.67,1.89,3.01,4.03s2.68,5.53,3.26,9.65c.53,3.76.13,7.12-.87,10.19-1.41,4.36-3.88,8.1-6.77,11.67-2.9,3.59-5.85,6.74-8.69,9.49-2.83,2.76-5.26,4.83-7.5,5.97-2.96,1.52-5.17,1.3-7.14-1.01s-3.28-6.3-3.69-11.89c-.09-1.91-.09-3.78.05-5.57.29-3.81.96-7.35,2.08-10.52,1.12-3.16,2.35-5.7,3.72-7.56,1.36-1.84,2.55-2.78,3.59-2.79.1,0,.16-.04.16-.12,0-.07-.08-.27-.25-.58-1.64-3.21-2.94-6.8-3.87-10.57-.66-2.72-1.16-5.44-1.49-8.14-.12-1.03-.22-2.07-.3-3.1-.03-.41-.06-.83-.08-1.24Z"/></svg>